<?xml version="1.0" encoding="UTF-8" standalone="no"?>
<svg
   width="20mm"
   height="20mm"
   viewBox="0 0 19.999999 19.999999"
   version="1.1"
   id="svg4895"
   xmlns="http://www.w3.org/2000/svg"
   xmlns:svg="http://www.w3.org/2000/svg"
   xmlns:rdf="http://www.w3.org/1999/02/22-rdf-syntax-ns#"
   xmlns:cc="http://creativecommons.org/ns#"
   xmlns:dc="http://purl.org/dc/elements/1.1/">
  <defs
     id="defs4889" />
  <metadata
     id="metadata4892">
    <rdf:RDF>
      <cc:Work
         rdf:about="">
        <dc:format>image/svg+xml</dc:format>
        <dc:type
           rdf:resource="http://purl.org/dc/dcmitype/StillImage" />
      </cc:Work>
    </rdf:RDF>
  </metadata>
  <g
     id="layer1">
    <g
       id="g3596"
       transform="matrix(1.1488257,0,0,1.1488257,-129.99508,-256.89349)">
      <g
         id="g1527"
         transform="translate(0.08557946,0.81427623)">
        <g
           id="g3551"
           transform="matrix(0.94058856,0,0,0.94058856,108.46816,165.87571)">
          <g
             id="g58542"
             transform="matrix(0.16411341,0,0,0.16411341,-442.95611,-593.68717)">
            <g
               id="g5431"
               transform="translate(-73.440909,-1.6833372)">
              <g
                 id="g45742"
                 transform="translate(-2.1882296e-4,0.00142123)">
                <path
                   id="path1070-3-4-8-8"
                   style="fill:#126599;fill-opacity:1;stroke-width:0.55861"
                   d="m 78.966797,25.337891 -1.369141,0.01758 c -8.261837,0.12848 -16.143038,3.503152 -21.941406,9.396484 -1.234527,1.251286 -2.351651,2.596757 -3.351562,4.015625 -1.089289,-1.558521 -2.330352,-3.022618 -3.69336,-4.363281 -2.977389,-2.932701 -6.502155,-5.240034 -10.378906,-6.792969 -3.876751,-1.552935 -8.020819,-2.317033 -12.199219,-2.25 l -1.324219,0.01563 v 11.402344 l 1.373047,-0.02734 c 2.664568,-0.04469 5.318601,0.435089 7.798828,1.423828 2.480227,0.988739 4.73772,2.456783 6.642579,4.328125 1.904858,1.871343 3.417743,4.100985 4.451171,6.564453 0.284891,0.675918 0.531596,1.368145 0.738282,2.066407 H 58.75 c 0.927292,-3.122628 2.609777,-6.004269 4.933594,-8.367188 3.686824,-3.759443 8.697154,-5.915075 13.964844,-6.015625 l 1.318359,-0.02344 z M 45.712891,62.53125 c -0.206686,0.703848 -0.453391,1.402207 -0.738282,2.078125 -1.033428,2.463469 -2.546313,4.691158 -4.451171,6.5625 -1.904859,1.871342 -4.162352,3.341339 -6.642579,4.330078 -2.480227,0.988739 -5.13426,1.468244 -7.798828,1.417969 l -1.373047,-0.02148 v 11.40039 l 1.324219,0.01758 c 4.1784,0.06703 8.322468,-0.699018 12.199219,-2.251953 3.876751,-1.552935 7.401517,-3.863901 10.378906,-6.791015 1.363008,-1.340664 2.604071,-2.804761 3.69336,-4.363282 0.999911,1.418869 2.117035,2.76434 3.351562,4.015625 5.798368,5.893332 13.679569,9.262145 21.941406,9.390625 l 1.369141,0.02148 V 76.949219 l -1.318359,-0.0293 C 72.380748,76.824958 67.370418,74.669599 63.683594,70.910156 61.354191,68.541651 59.677292,65.659464 58.75,62.53125 Z"
                   transform="matrix(1.7901588,0,0,1.7901588,2765.925,3942.6318)" />
                <path
                   id="rect4777"
                   style="fill:#db162f;stroke-width:0.569585;stroke-linejoin:round"
                   d="m 2810.1577,4034.1721 h 97.13 v 20.4 h -97.13 z" />
              </g>
            </g>
          </g>
        </g>
      </g>
    </g>
  </g>
</svg>
